<mxfile host="app.diagrams.net" modified="2024-04-09T12:14:58.364Z" agent="Mozilla/5.0 (Windows NT 10.0; Win64; x64) AppleWebKit/537.36 (KHTML, like Gecko) Chrome/123.0.0.0 Safari/537.36" etag="_WZsz0TPD85k--eKS5ET" version="24.2.3" type="device">
  <diagram name="Page-1" id="UrwsnHVV_tJ78oB9pmvZ">
    <mxGraphModel dx="1499" dy="662" grid="1" gridSize="10" guides="1" tooltips="1" connect="1" arrows="1" fold="1" page="1" pageScale="1" pageWidth="827" pageHeight="1169" math="0" shadow="0">
      <root>
        <mxCell id="0" />
        <mxCell id="1" parent="0" />
        <mxCell id="hiwHujMuPrVoj-C9oUlP-13" value="" style="edgeStyle=orthogonalEdgeStyle;rounded=0;orthogonalLoop=1;jettySize=auto;html=1;" parent="1" source="sISirMlON-6PlXsTELaS-1" target="hiwHujMuPrVoj-C9oUlP-12" edge="1">
          <mxGeometry relative="1" as="geometry" />
        </mxCell>
        <mxCell id="sISirMlON-6PlXsTELaS-1" value="Login/&lt;div&gt;Register&lt;/div&gt;" style="ellipse;whiteSpace=wrap;html=1;aspect=fixed;" parent="1" vertex="1">
          <mxGeometry x="242.5" y="780" width="70" height="70" as="geometry" />
        </mxCell>
        <mxCell id="hiwHujMuPrVoj-C9oUlP-32" style="edgeStyle=orthogonalEdgeStyle;rounded=0;orthogonalLoop=1;jettySize=auto;html=1;exitX=1;exitY=0.5;exitDx=0;exitDy=0;" parent="1" source="sISirMlON-6PlXsTELaS-2" edge="1">
          <mxGeometry relative="1" as="geometry">
            <mxPoint x="614.5" y="400" as="targetPoint" />
          </mxGeometry>
        </mxCell>
        <mxCell id="sISirMlON-6PlXsTELaS-2" value="Supermarket Search" style="ellipse;whiteSpace=wrap;html=1;aspect=fixed;" parent="1" vertex="1">
          <mxGeometry x="463.49999999999994" y="360" width="80" height="80" as="geometry" />
        </mxCell>
        <mxCell id="hiwHujMuPrVoj-C9oUlP-15" style="edgeStyle=orthogonalEdgeStyle;rounded=0;orthogonalLoop=1;jettySize=auto;html=1;exitX=1;exitY=0.5;exitDx=0;exitDy=0;entryX=0;entryY=0.5;entryDx=0;entryDy=0;" parent="1" source="sISirMlON-6PlXsTELaS-4" target="sISirMlON-6PlXsTELaS-51" edge="1">
          <mxGeometry relative="1" as="geometry" />
        </mxCell>
        <mxCell id="sISirMlON-6PlXsTELaS-4" value="Destaques" style="ellipse;whiteSpace=wrap;html=1;aspect=fixed;" parent="1" vertex="1">
          <mxGeometry x="462" y="550" width="70" height="70" as="geometry" />
        </mxCell>
        <mxCell id="sISirMlON-6PlXsTELaS-5" value="" style="endArrow=classic;html=1;rounded=0;" parent="1" edge="1">
          <mxGeometry width="50" height="50" relative="1" as="geometry">
            <mxPoint x="442.5" y="800" as="sourcePoint" />
            <mxPoint x="513.5" y="760" as="targetPoint" />
            <Array as="points">
              <mxPoint x="483.5" y="800" />
              <mxPoint x="483.5" y="760" />
            </Array>
          </mxGeometry>
        </mxCell>
        <mxCell id="sISirMlON-6PlXsTELaS-6" value="" style="endArrow=classic;html=1;rounded=0;" parent="1" edge="1">
          <mxGeometry width="50" height="50" relative="1" as="geometry">
            <mxPoint x="438.5" y="830" as="sourcePoint" />
            <mxPoint x="513.5" y="870" as="targetPoint" />
            <Array as="points">
              <mxPoint x="483.5" y="830" />
              <mxPoint x="483.5" y="870" />
            </Array>
          </mxGeometry>
        </mxCell>
        <mxCell id="sISirMlON-6PlXsTELaS-8" value="Select" style="text;html=1;align=center;verticalAlign=middle;whiteSpace=wrap;rounded=0;" parent="1" vertex="1">
          <mxGeometry x="438.5" y="870" width="60" height="30" as="geometry" />
        </mxCell>
        <mxCell id="sISirMlON-6PlXsTELaS-10" value="Login&amp;nbsp;" style="rounded=0;whiteSpace=wrap;html=1;" parent="1" vertex="1">
          <mxGeometry x="513.5" y="740" width="80" height="30" as="geometry" />
        </mxCell>
        <mxCell id="hiwHujMuPrVoj-C9oUlP-11" style="edgeStyle=orthogonalEdgeStyle;rounded=0;orthogonalLoop=1;jettySize=auto;html=1;exitX=1;exitY=0.5;exitDx=0;exitDy=0;entryX=0.5;entryY=1;entryDx=0;entryDy=0;" parent="1" source="sISirMlON-6PlXsTELaS-11" target="hiwHujMuPrVoj-C9oUlP-1" edge="1">
          <mxGeometry relative="1" as="geometry" />
        </mxCell>
        <mxCell id="sISirMlON-6PlXsTELaS-11" value="Register&amp;nbsp;" style="rounded=0;whiteSpace=wrap;html=1;" parent="1" vertex="1">
          <mxGeometry x="513.5" y="850" width="80" height="30" as="geometry" />
        </mxCell>
        <mxCell id="sISirMlON-6PlXsTELaS-12" value="Select" style="text;html=1;align=center;verticalAlign=middle;whiteSpace=wrap;rounded=0;" parent="1" vertex="1">
          <mxGeometry x="422.5" y="730" width="60" height="30" as="geometry" />
        </mxCell>
        <mxCell id="sISirMlON-6PlXsTELaS-13" value="" style="endArrow=classic;html=1;rounded=0;exitX=1;exitY=0.5;exitDx=0;exitDy=0;" parent="1" source="sISirMlON-6PlXsTELaS-10" edge="1">
          <mxGeometry width="50" height="50" relative="1" as="geometry">
            <mxPoint x="563.5" y="870" as="sourcePoint" />
            <mxPoint x="673.5" y="755" as="targetPoint" />
          </mxGeometry>
        </mxCell>
        <mxCell id="sISirMlON-6PlXsTELaS-15" value="Insert new email and pw" style="text;html=1;align=center;verticalAlign=middle;whiteSpace=wrap;rounded=0;" parent="1" vertex="1">
          <mxGeometry x="615" y="870" width="80" height="30" as="geometry" />
        </mxCell>
        <mxCell id="sISirMlON-6PlXsTELaS-17" value="" style="endArrow=classic;html=1;rounded=0;exitX=1;exitY=0.5;exitDx=0;exitDy=0;" parent="1" edge="1">
          <mxGeometry width="50" height="50" relative="1" as="geometry">
            <mxPoint x="455" y="95" as="sourcePoint" />
            <mxPoint x="500" y="95" as="targetPoint" />
          </mxGeometry>
        </mxCell>
        <mxCell id="sISirMlON-6PlXsTELaS-18" value="Access" style="text;html=1;align=center;verticalAlign=middle;whiteSpace=wrap;rounded=0;" parent="1" vertex="1">
          <mxGeometry x="455" y="75" width="46" height="10" as="geometry" />
        </mxCell>
        <mxCell id="sISirMlON-6PlXsTELaS-21" value="" style="endArrow=classic;html=1;rounded=0;exitX=1;exitY=0.5;exitDx=0;exitDy=0;" parent="1" edge="1">
          <mxGeometry width="50" height="50" relative="1" as="geometry">
            <mxPoint x="591" y="94.71000000000001" as="sourcePoint" />
            <mxPoint x="650" y="95" as="targetPoint" />
          </mxGeometry>
        </mxCell>
        <mxCell id="sISirMlON-6PlXsTELaS-22" value="&lt;div&gt;Expand Article to Full View&lt;/div&gt;" style="text;html=1;align=center;verticalAlign=middle;whiteSpace=wrap;rounded=0;" parent="1" vertex="1">
          <mxGeometry x="586" y="60" width="69" height="10" as="geometry" />
        </mxCell>
        <mxCell id="sISirMlON-6PlXsTELaS-24" value="&lt;span style=&quot;text-align: left;&quot;&gt;&amp;nbsp;List of&amp;nbsp;&lt;/span&gt;&lt;span style=&quot;text-align: left;&quot;&gt;Article Previews&lt;/span&gt;" style="rounded=0;whiteSpace=wrap;html=1;" parent="1" vertex="1">
          <mxGeometry x="501" y="75" width="90" height="40" as="geometry" />
        </mxCell>
        <mxCell id="sISirMlON-6PlXsTELaS-25" value="Detailed Article Overview" style="rounded=0;whiteSpace=wrap;html=1;" parent="1" vertex="1">
          <mxGeometry x="650" y="80" width="90" height="40" as="geometry" />
        </mxCell>
        <mxCell id="sISirMlON-6PlXsTELaS-26" value="" style="endArrow=classic;html=1;rounded=0;exitX=0.5;exitY=1;exitDx=0;exitDy=0;entryX=0.544;entryY=0.875;entryDx=0;entryDy=0;entryPerimeter=0;" parent="1" source="sISirMlON-6PlXsTELaS-25" target="sISirMlON-6PlXsTELaS-24" edge="1">
          <mxGeometry width="50" height="50" relative="1" as="geometry">
            <mxPoint x="580" y="190" as="sourcePoint" />
            <mxPoint x="650" y="170" as="targetPoint" />
            <Array as="points">
              <mxPoint x="695" y="140" />
              <mxPoint x="550" y="140" />
            </Array>
          </mxGeometry>
        </mxCell>
        <mxCell id="sISirMlON-6PlXsTELaS-27" value="Back" style="text;html=1;align=center;verticalAlign=middle;whiteSpace=wrap;rounded=0;" parent="1" vertex="1">
          <mxGeometry x="591" y="150" width="59" height="10" as="geometry" />
        </mxCell>
        <mxCell id="hiwHujMuPrVoj-C9oUlP-2" style="edgeStyle=orthogonalEdgeStyle;rounded=0;orthogonalLoop=1;jettySize=auto;html=1;exitX=1;exitY=0.5;exitDx=0;exitDy=0;" parent="1" source="sISirMlON-6PlXsTELaS-28" edge="1">
          <mxGeometry relative="1" as="geometry">
            <mxPoint x="670" y="240" as="targetPoint" />
          </mxGeometry>
        </mxCell>
        <mxCell id="sISirMlON-6PlXsTELaS-28" value="Statistical data" style="ellipse;whiteSpace=wrap;html=1;aspect=fixed;" parent="1" vertex="1">
          <mxGeometry x="522.5" y="210" width="60" height="60" as="geometry" />
        </mxCell>
        <mxCell id="sISirMlON-6PlXsTELaS-31" value="" style="endArrow=classic;html=1;rounded=0;exitX=1;exitY=1;exitDx=0;exitDy=0;" parent="1" target="sISirMlON-6PlXsTELaS-28" edge="1">
          <mxGeometry width="50" height="50" relative="1" as="geometry">
            <mxPoint x="445.4809703885628" y="117.98097038856281" as="sourcePoint" />
            <mxPoint x="590" y="140" as="targetPoint" />
            <Array as="points">
              <mxPoint x="480" y="118" />
              <mxPoint x="480" y="240" />
            </Array>
          </mxGeometry>
        </mxCell>
        <mxCell id="sISirMlON-6PlXsTELaS-32" value="View Related Statistics" style="text;html=1;align=center;verticalAlign=middle;whiteSpace=wrap;rounded=0;" parent="1" vertex="1">
          <mxGeometry x="490" y="150" width="60" height="50" as="geometry" />
        </mxCell>
        <mxCell id="sISirMlON-6PlXsTELaS-37" value="Swipe left/right" style="text;html=1;align=center;verticalAlign=middle;whiteSpace=wrap;rounded=0;" parent="1" vertex="1">
          <mxGeometry x="604" y="210" width="46" height="10" as="geometry" />
        </mxCell>
        <mxCell id="sISirMlON-6PlXsTELaS-38" value="Positive/ Negative statistical data" style="rounded=0;whiteSpace=wrap;html=1;" parent="1" vertex="1">
          <mxGeometry x="680" y="220" width="110" height="30" as="geometry" />
        </mxCell>
        <mxCell id="sISirMlON-6PlXsTELaS-46" value="Choose&amp;nbsp;&lt;div&gt;Supermarket&lt;/div&gt;" style="text;html=1;align=center;verticalAlign=middle;whiteSpace=wrap;rounded=0;" parent="1" vertex="1">
          <mxGeometry x="550.5" y="350" width="60" height="30" as="geometry" />
        </mxCell>
        <mxCell id="sISirMlON-6PlXsTELaS-50" value="Select Product" style="text;html=1;align=center;verticalAlign=middle;whiteSpace=wrap;rounded=0;" parent="1" vertex="1">
          <mxGeometry x="538" y="605" width="46" height="10" as="geometry" />
        </mxCell>
        <mxCell id="hiwHujMuPrVoj-C9oUlP-36" style="edgeStyle=orthogonalEdgeStyle;rounded=0;orthogonalLoop=1;jettySize=auto;html=1;exitX=1;exitY=0.5;exitDx=0;exitDy=0;entryX=0;entryY=0.5;entryDx=0;entryDy=0;" parent="1" source="sISirMlON-6PlXsTELaS-51" target="hiwHujMuPrVoj-C9oUlP-33" edge="1">
          <mxGeometry relative="1" as="geometry">
            <Array as="points">
              <mxPoint x="805.5" y="585" />
              <mxPoint x="805.5" y="525" />
            </Array>
          </mxGeometry>
        </mxCell>
        <mxCell id="hiwHujMuPrVoj-C9oUlP-37" style="edgeStyle=orthogonalEdgeStyle;rounded=0;orthogonalLoop=1;jettySize=auto;html=1;" parent="1" source="sISirMlON-6PlXsTELaS-51" target="hiwHujMuPrVoj-C9oUlP-34" edge="1">
          <mxGeometry relative="1" as="geometry">
            <Array as="points">
              <mxPoint x="865.5" y="585" />
              <mxPoint x="865.5" y="585" />
            </Array>
          </mxGeometry>
        </mxCell>
        <mxCell id="hiwHujMuPrVoj-C9oUlP-38" style="edgeStyle=orthogonalEdgeStyle;rounded=0;orthogonalLoop=1;jettySize=auto;html=1;exitX=1;exitY=0.5;exitDx=0;exitDy=0;entryX=0;entryY=0.412;entryDx=0;entryDy=0;entryPerimeter=0;" parent="1" source="sISirMlON-6PlXsTELaS-51" target="hiwHujMuPrVoj-C9oUlP-35" edge="1">
          <mxGeometry relative="1" as="geometry">
            <Array as="points">
              <mxPoint x="805.5" y="585" />
              <mxPoint x="805.5" y="645" />
              <mxPoint x="965.5" y="645" />
            </Array>
          </mxGeometry>
        </mxCell>
        <mxCell id="sISirMlON-6PlXsTELaS-51" value="Product Details Overview" style="rounded=0;whiteSpace=wrap;html=1;" parent="1" vertex="1">
          <mxGeometry x="619.5" y="555" width="120" height="60" as="geometry" />
        </mxCell>
        <mxCell id="hiwHujMuPrVoj-C9oUlP-46" style="edgeStyle=orthogonalEdgeStyle;rounded=0;orthogonalLoop=1;jettySize=auto;html=1;exitX=0.5;exitY=1;exitDx=0;exitDy=0;entryX=0.5;entryY=0;entryDx=0;entryDy=0;" parent="1" source="sISirMlON-6PlXsTELaS-55" target="hiwHujMuPrVoj-C9oUlP-45" edge="1">
          <mxGeometry relative="1" as="geometry" />
        </mxCell>
        <mxCell id="sISirMlON-6PlXsTELaS-55" value="Categories&amp;nbsp;&lt;div&gt;List&lt;/div&gt;" style="rounded=0;whiteSpace=wrap;html=1;" parent="1" vertex="1">
          <mxGeometry x="620.5" y="360" width="120" height="60" as="geometry" />
        </mxCell>
        <mxCell id="hiwHujMuPrVoj-C9oUlP-1" value="Home Page" style="rounded=0;whiteSpace=wrap;html=1;" parent="1" vertex="1">
          <mxGeometry x="672.5" y="740" width="80" height="30" as="geometry" />
        </mxCell>
        <mxCell id="hiwHujMuPrVoj-C9oUlP-7" value="" style="edgeStyle=orthogonalEdgeStyle;rounded=0;orthogonalLoop=1;jettySize=auto;html=1;" parent="1" source="hiwHujMuPrVoj-C9oUlP-5" target="hiwHujMuPrVoj-C9oUlP-6" edge="1">
          <mxGeometry relative="1" as="geometry" />
        </mxCell>
        <mxCell id="hiwHujMuPrVoj-C9oUlP-5" value="&lt;font style=&quot;font-size: 9px;&quot;&gt;News and Stats&lt;/font&gt;" style="ellipse;whiteSpace=wrap;html=1;aspect=fixed;" parent="1" vertex="1">
          <mxGeometry x="260" y="64.5" width="81" height="81" as="geometry" />
        </mxCell>
        <mxCell id="hiwHujMuPrVoj-C9oUlP-6" value="News Feed" style="rounded=0;whiteSpace=wrap;html=1;" parent="1" vertex="1">
          <mxGeometry x="379" y="85" width="76" height="40" as="geometry" />
        </mxCell>
        <mxCell id="hiwHujMuPrVoj-C9oUlP-10" value="Verify Email/Pw" style="text;html=1;align=center;verticalAlign=middle;whiteSpace=wrap;rounded=0;" parent="1" vertex="1">
          <mxGeometry x="722.5" y="810" width="60" height="30" as="geometry" />
        </mxCell>
        <mxCell id="hiwHujMuPrVoj-C9oUlP-12" value="Login/&lt;div&gt;Register&amp;nbsp;&lt;/div&gt;" style="rounded=0;whiteSpace=wrap;html=1;" parent="1" vertex="1">
          <mxGeometry x="372.5" y="790" width="70" height="50" as="geometry" />
        </mxCell>
        <mxCell id="hiwHujMuPrVoj-C9oUlP-14" value="Access" style="text;html=1;align=center;verticalAlign=middle;whiteSpace=wrap;rounded=0;" parent="1" vertex="1">
          <mxGeometry x="312.5" y="780" width="60" height="30" as="geometry" />
        </mxCell>
        <mxCell id="hiwHujMuPrVoj-C9oUlP-22" style="edgeStyle=orthogonalEdgeStyle;rounded=0;orthogonalLoop=1;jettySize=auto;html=1;exitX=1;exitY=0.5;exitDx=0;exitDy=0;entryX=0;entryY=0.5;entryDx=0;entryDy=0;" parent="1" source="hiwHujMuPrVoj-C9oUlP-17" target="hiwHujMuPrVoj-C9oUlP-21" edge="1">
          <mxGeometry relative="1" as="geometry" />
        </mxCell>
        <mxCell id="hiwHujMuPrVoj-C9oUlP-17" value="Meat Search" style="ellipse;whiteSpace=wrap;html=1;aspect=fixed;" parent="1" vertex="1">
          <mxGeometry x="244.5" y="430" width="80" height="80" as="geometry" />
        </mxCell>
        <mxCell id="hiwHujMuPrVoj-C9oUlP-23" style="edgeStyle=orthogonalEdgeStyle;rounded=0;orthogonalLoop=1;jettySize=auto;html=1;exitX=0.5;exitY=0;exitDx=0;exitDy=0;entryX=0;entryY=0.5;entryDx=0;entryDy=0;" parent="1" source="hiwHujMuPrVoj-C9oUlP-21" target="sISirMlON-6PlXsTELaS-2" edge="1">
          <mxGeometry relative="1" as="geometry" />
        </mxCell>
        <mxCell id="hiwHujMuPrVoj-C9oUlP-24" style="edgeStyle=orthogonalEdgeStyle;rounded=0;orthogonalLoop=1;jettySize=auto;html=1;exitX=0.5;exitY=1;exitDx=0;exitDy=0;entryX=0;entryY=0.5;entryDx=0;entryDy=0;" parent="1" source="hiwHujMuPrVoj-C9oUlP-21" target="sISirMlON-6PlXsTELaS-4" edge="1">
          <mxGeometry relative="1" as="geometry">
            <mxPoint x="398" y="530" as="sourcePoint" />
          </mxGeometry>
        </mxCell>
        <mxCell id="hiwHujMuPrVoj-C9oUlP-21" value="Home Page" style="rounded=0;whiteSpace=wrap;html=1;" parent="1" vertex="1">
          <mxGeometry x="364.5" y="455" width="80" height="30" as="geometry" />
        </mxCell>
        <mxCell id="hiwHujMuPrVoj-C9oUlP-25" value="Access" style="text;html=1;align=center;verticalAlign=middle;whiteSpace=wrap;rounded=0;" parent="1" vertex="1">
          <mxGeometry x="404.5" y="380" width="46" height="10" as="geometry" />
        </mxCell>
        <mxCell id="hiwHujMuPrVoj-C9oUlP-26" value="Access" style="text;html=1;align=center;verticalAlign=middle;whiteSpace=wrap;rounded=0;" parent="1" vertex="1">
          <mxGeometry x="403" y="595" width="46" height="10" as="geometry" />
        </mxCell>
        <mxCell id="hiwHujMuPrVoj-C9oUlP-33" value="Feedback" style="rounded=0;whiteSpace=wrap;html=1;" parent="1" vertex="1">
          <mxGeometry x="965.5" y="505" width="100" height="40" as="geometry" />
        </mxCell>
        <mxCell id="hiwHujMuPrVoj-C9oUlP-34" value="Save to Favorites" style="rounded=0;whiteSpace=wrap;html=1;" parent="1" vertex="1">
          <mxGeometry x="965.5" y="565" width="100" height="40" as="geometry" />
        </mxCell>
        <mxCell id="hiwHujMuPrVoj-C9oUlP-35" value="Meat Information" style="rounded=0;whiteSpace=wrap;html=1;" parent="1" vertex="1">
          <mxGeometry x="965.5" y="629.5" width="100" height="40" as="geometry" />
        </mxCell>
        <mxCell id="hiwHujMuPrVoj-C9oUlP-40" value="Scan QR Code" style="text;html=1;align=center;verticalAlign=middle;whiteSpace=wrap;rounded=0;" parent="1" vertex="1">
          <mxGeometry x="845.5" y="550" width="60" height="30" as="geometry" />
        </mxCell>
        <mxCell id="hiwHujMuPrVoj-C9oUlP-43" value="Give Feedback" style="text;html=1;align=center;verticalAlign=middle;whiteSpace=wrap;rounded=0;" parent="1" vertex="1">
          <mxGeometry x="845.5" y="485" width="60" height="30" as="geometry" />
        </mxCell>
        <mxCell id="hiwHujMuPrVoj-C9oUlP-44" value="View Meat&lt;div&gt;Info&lt;/div&gt;" style="text;html=1;align=center;verticalAlign=middle;whiteSpace=wrap;rounded=0;" parent="1" vertex="1">
          <mxGeometry x="845.5" y="655" width="60" height="30" as="geometry" />
        </mxCell>
        <mxCell id="hiwHujMuPrVoj-C9oUlP-48" style="edgeStyle=orthogonalEdgeStyle;rounded=0;orthogonalLoop=1;jettySize=auto;html=1;exitX=0.5;exitY=1;exitDx=0;exitDy=0;" parent="1" source="hiwHujMuPrVoj-C9oUlP-45" target="sISirMlON-6PlXsTELaS-51" edge="1">
          <mxGeometry relative="1" as="geometry" />
        </mxCell>
        <mxCell id="hiwHujMuPrVoj-C9oUlP-45" value="Category&amp;nbsp;&lt;div&gt;Products&lt;/div&gt;" style="rounded=0;whiteSpace=wrap;html=1;" parent="1" vertex="1">
          <mxGeometry x="620.5" y="450" width="120" height="60" as="geometry" />
        </mxCell>
        <mxCell id="hiwHujMuPrVoj-C9oUlP-49" value="Select Category" style="text;html=1;align=center;verticalAlign=middle;whiteSpace=wrap;rounded=0;" parent="1" vertex="1">
          <mxGeometry x="682" y="420" width="98.5" height="30" as="geometry" />
        </mxCell>
        <mxCell id="hiwHujMuPrVoj-C9oUlP-50" value="Select Product" style="text;html=1;align=center;verticalAlign=middle;whiteSpace=wrap;rounded=0;" parent="1" vertex="1">
          <mxGeometry x="682" y="520" width="98.5" height="30" as="geometry" />
        </mxCell>
        <mxCell id="hiwHujMuPrVoj-C9oUlP-51" value="Verify Email/Pw" style="text;html=1;align=center;verticalAlign=middle;whiteSpace=wrap;rounded=0;" parent="1" vertex="1">
          <mxGeometry x="605" y="720" width="60" height="30" as="geometry" />
        </mxCell>
      </root>
    </mxGraphModel>
  </diagram>
</mxfile>
